<mxfile host="app.diagrams.net" agent="Mozilla/5.0 (Windows NT 10.0; Win64; x64) AppleWebKit/537.36 (KHTML, like Gecko) Chrome/128.0.0.0 Safari/537.36" version="24.8.3">
  <diagram name="WMS操作流程图" id="4fjYf9DxsTwHK-hKx6aq">
    <mxGraphModel dx="1434" dy="772" grid="1" gridSize="10" guides="1" tooltips="1" connect="1" arrows="1" fold="1" page="1" pageScale="1" pageWidth="827" pageHeight="1169" math="0" shadow="0">
      <root>
        <mxCell id="0" />
        <mxCell id="1" parent="0" />
        <mxCell id="3i9zdxC4q-CGygqt21M2-3" style="edgeStyle=orthogonalEdgeStyle;rounded=0;orthogonalLoop=1;jettySize=auto;html=1;exitX=0.5;exitY=1;exitDx=0;exitDy=0;exitPerimeter=0;" edge="1" parent="1" source="3i9zdxC4q-CGygqt21M2-1" target="3i9zdxC4q-CGygqt21M2-2">
          <mxGeometry relative="1" as="geometry" />
        </mxCell>
        <mxCell id="3i9zdxC4q-CGygqt21M2-1" value="" style="html=1;shape=mxgraph.basic.isocube;isoAngle=15;fillColor=#dae8fc;strokeColor=#6c8ebf;" vertex="1" parent="1">
          <mxGeometry x="80" y="20" width="100" height="100" as="geometry" />
        </mxCell>
        <mxCell id="3i9zdxC4q-CGygqt21M2-9" value="" style="edgeStyle=orthogonalEdgeStyle;rounded=0;orthogonalLoop=1;jettySize=auto;html=1;entryX=0.07;entryY=0.4;entryDx=0;entryDy=0;entryPerimeter=0;" edge="1" parent="1" source="3i9zdxC4q-CGygqt21M2-2" target="3i9zdxC4q-CGygqt21M2-7">
          <mxGeometry relative="1" as="geometry">
            <mxPoint x="370" y="380" as="targetPoint" />
          </mxGeometry>
        </mxCell>
        <mxCell id="3i9zdxC4q-CGygqt21M2-2" value="" style="verticalLabelPosition=bottom;verticalAlign=top;html=1;shape=mxgraph.basic.polygon;polyCoords=[[0.25,0],[0.75,0],[1,0.25],[1,0.75],[0.75,1],[0.25,1],[0,0.75],[0,0.25]];polyline=0;" vertex="1" parent="1">
          <mxGeometry x="30" y="280" width="200" height="200" as="geometry" />
        </mxCell>
        <mxCell id="3i9zdxC4q-CGygqt21M2-4" value="" style="html=1;shape=mxgraph.basic.isocube;isoAngle=15;fillColor=#dae8fc;strokeColor=#6c8ebf;" vertex="1" parent="1">
          <mxGeometry x="80" y="330" width="100" height="100" as="geometry" />
        </mxCell>
        <mxCell id="3i9zdxC4q-CGygqt21M2-5" value="入库" style="text;html=1;align=center;verticalAlign=middle;whiteSpace=wrap;rounded=0;" vertex="1" parent="1">
          <mxGeometry x="60" y="190" width="60" height="30" as="geometry" />
        </mxCell>
        <mxCell id="3i9zdxC4q-CGygqt21M2-6" value="扫描RFID" style="text;html=1;align=center;verticalAlign=middle;whiteSpace=wrap;rounded=0;" vertex="1" parent="1">
          <mxGeometry x="65" y="480" width="110" height="30" as="geometry" />
        </mxCell>
        <mxCell id="3i9zdxC4q-CGygqt21M2-7" value="WMS" style="ellipse;shape=cloud;whiteSpace=wrap;html=1;" vertex="1" parent="1">
          <mxGeometry x="490" y="330" width="240" height="200" as="geometry" />
        </mxCell>
        <mxCell id="3i9zdxC4q-CGygqt21M2-10" value="ERP系统、MES系统" style="ellipse;shape=cloud;whiteSpace=wrap;html=1;direction=west;" vertex="1" parent="1">
          <mxGeometry x="460" y="20" width="240" height="200" as="geometry" />
        </mxCell>
        <mxCell id="3i9zdxC4q-CGygqt21M2-12" value="物料、单号" style="text;html=1;align=center;verticalAlign=middle;whiteSpace=wrap;rounded=0;" vertex="1" parent="1">
          <mxGeometry x="260" y="380" width="100" height="30" as="geometry" />
        </mxCell>
        <mxCell id="3i9zdxC4q-CGygqt21M2-13" value="数量信息的获取" style="text;html=1;align=center;verticalAlign=middle;whiteSpace=wrap;rounded=0;" vertex="1" parent="1">
          <mxGeometry x="360" y="380" width="100" height="30" as="geometry" />
        </mxCell>
        <mxCell id="3i9zdxC4q-CGygqt21M2-21" style="edgeStyle=orthogonalEdgeStyle;rounded=0;orthogonalLoop=1;jettySize=auto;html=1;exitX=0.625;exitY=0.2;exitDx=0;exitDy=0;exitPerimeter=0;entryX=0.25;entryY=0.25;entryDx=0;entryDy=0;entryPerimeter=0;" edge="1" parent="1" source="3i9zdxC4q-CGygqt21M2-10" target="3i9zdxC4q-CGygqt21M2-7">
          <mxGeometry relative="1" as="geometry" />
        </mxCell>
        <mxCell id="3i9zdxC4q-CGygqt21M2-23" style="edgeStyle=orthogonalEdgeStyle;rounded=0;orthogonalLoop=1;jettySize=auto;html=1;exitX=0.625;exitY=0.2;exitDx=0;exitDy=0;exitPerimeter=0;entryX=0.25;entryY=0.25;entryDx=0;entryDy=0;entryPerimeter=0;" edge="1" parent="1" source="3i9zdxC4q-CGygqt21M2-7" target="3i9zdxC4q-CGygqt21M2-10">
          <mxGeometry relative="1" as="geometry" />
        </mxCell>
        <mxCell id="3i9zdxC4q-CGygqt21M2-24" value="单号查询" style="text;html=1;align=center;verticalAlign=middle;whiteSpace=wrap;rounded=0;" vertex="1" parent="1">
          <mxGeometry x="640" y="260" width="60" height="30" as="geometry" />
        </mxCell>
        <mxCell id="3i9zdxC4q-CGygqt21M2-26" value="订单信息" style="text;html=1;align=center;verticalAlign=middle;whiteSpace=wrap;rounded=0;" vertex="1" parent="1">
          <mxGeometry x="490" y="260" width="60" height="30" as="geometry" />
        </mxCell>
      </root>
    </mxGraphModel>
  </diagram>
</mxfile>
